<?xml version="1.0" encoding="iso-8859-1"?>
<!-- Generator: Adobe Illustrator 15.1.0, SVG Export Plug-In . SVG Version: 6.00 Build 0)  -->
<!DOCTYPE svg PUBLIC "-//W3C//DTD SVG 1.1//EN" "http://www.w3.org/Graphics/SVG/1.1/DTD/svg11.dtd">
<svg version="1.1" id="Capa_1" xmlns="http://www.w3.org/2000/svg" xmlns:xlink="http://www.w3.org/1999/xlink" x="0px" y="0px"
	 width="34.016px" height="34.016px" viewBox="56.695 0 34.016 34.016" style="enable-background:new 56.695 0 34.016 34.016;"
	 xml:space="preserve">
<g>
	<rect x="56.695" y="0" style="fill:#50ABF1;" width="34.016" height="34.016"/>
	<path style="fill:#FFFFFF;" d="M61.202,25.215c2.264,1.436,4.949,2.267,7.828,2.267c8.087,0,14.643-6.557,14.643-14.643
		c0-0.202-0.004-0.402-0.012-0.602c0.292-0.23,2.102-1.681,2.545-2.613c0,0-1.469,0.611-2.907,0.755c-0.003,0-0.006,0-0.009,0
		c0,0,0.003-0.001,0.008-0.005c0.132-0.088,1.984-1.35,2.235-2.852c0,0-1.039,0.555-2.494,1.04c-0.241,0.08-0.493,0.159-0.753,0.231
		c-0.938-1-2.271-1.625-3.75-1.625c-2.838,0-5.138,2.299-5.138,5.135c0,0.4,0.046,0.79,0.133,1.164
		c-0.396-0.016-6.437-0.355-10.545-5.331c0,0-2.456,3.353,1.463,6.8c0,0-1.191-0.048-2.219-0.662c0,0-0.378,4.062,4.061,5.1
		c0,0-0.873,0.331-2.267,0.095c0,0,0.779,3.282,4.723,3.588c0,0-3.118,2.817-7.544,2.156H61.202z"/>
</g>
</svg>
